<svg width="27" height="36" viewBox="0 0 27 36" fill="none" xmlns="http://www.w3.org/2000/svg">
<path d="M13.65 0.949951H13.55L0.0500488 2.34995V27.05L13.55 35.0499L26.95 27.05V2.34995L13.65 0.949951ZM25.05 13.05L13.55 6.24995V6.14995H13.45L13.35 6.04995V6.14995L1.95005 13.05V4.04995L13.45 2.84995L25.05 4.04995V13.05ZM13.45 7.74995L24.95 14.45L20.45 17.05L13.35 12.85V14.25L19.25 17.75L18.35 18.25L13.35 15.25V16.65L17.15 18.95L16.35 19.45L13.35 17.65V19.05L15.25 20.15L13.45 21.25L2.05005 14.55L13.45 7.74995ZM1.95005 16.05L13.35 22.85V23.85L5.45005 19.15V20.55L13.45 25.35V26.45L5.45005 21.75V23.15L13.45 27.95L21.55 23.05V17.85L24.95 15.85V25.85L13.45 32.75L1.95005 25.95V16.05Z" fill="black"/>
</svg>
