    <svg xmlns="http://www.w3.org/2000/svg">
      <symbol viewBox="0 0 27 36" id="icon-htmlacademy">
        <path d="M13.65 0.949951H13.55L0.0500488 2.34995V27.05L13.55 35.0499L26.95 27.05V2.34995L13.65 0.949951ZM25.05 13.05L13.55 6.24995V6.14995H13.45L13.35 6.04995V6.14995L1.95005 13.05V4.04995L13.45 2.84995L25.05 4.04995V13.05ZM13.45 7.74995L24.95 14.45L20.45 17.05L13.35 12.85V14.25L19.25 17.75L18.35 18.25L13.35 15.25V16.65L17.15 18.95L16.35 19.45L13.35 17.65V19.05L15.25 20.15L13.45 21.25L2.05005 14.55L13.45 7.74995ZM1.95005 16.05L13.35 22.85V23.85L5.45005 19.15V20.55L13.45 25.35V26.45L5.45005 21.75V23.15L13.45 27.95L21.55 23.05V17.85L24.95 15.85V25.85L13.45 32.75L1.95005 25.95V16.05Z" fill="currentColor"/>
      </symbol>
      <symbol viewBox="0 0 23 21" id="icon-like">
        <path opacity="1" d="M12.9636 3.78L12.3364 6.825L11.7091 9.45H14.3227H20.8045V11.55C20.8045 11.55 20.8045 11.55 20.8045 11.655L17.7727 18.9H8.36364V8.4L12.9636 3.78ZM2.09091 10.5V18.9V10.5ZM13.8 0L6.9 6.93C6.48182 7.245 6.27273 7.77 6.27273 8.4V18.9C6.27273 20.055 7.21364 21 8.36364 21H17.7727C18.6091 21 19.3409 20.475 19.6545 19.74L22.7909 12.285C22.8955 12.075 22.8955 11.76 22.8955 11.55V9.45H23C23 8.295 22.0591 7.35 20.9091 7.35H14.3227L15.3682 2.52V2.205C15.3682 1.785 15.1591 1.365 14.95 1.05L13.8 0ZM4.18182 8.4H0V21H4.18182V8.4Z" fill="currentColor"/>
      </symbol>
    </svg>
